<svg width="332" height="20" viewBox="0 0 332 20" fill="none" xmlns="http://www.w3.org/2000/svg">
<path d="M0 0H294.675V20H0V0Z" fill="white"/>
<path d="M0 0H235.74V20H0V0Z" fill="#46B634"/>
<path d="M306.298 8.95361C305.824 8.78011 305.473 8.53255 305.244 8.21094C305.016 7.88932 304.901 7.50423 304.901 7.05566C304.901 6.37858 305.145 5.80941 305.631 5.34814C306.118 4.88688 306.765 4.65625 307.574 4.65625C308.386 4.65625 309.04 4.89323 309.535 5.36719C310.03 5.83691 310.278 6.41032 310.278 7.0874C310.278 7.51904 310.164 7.89567 309.935 8.21729C309.711 8.53467 309.368 8.78011 308.907 8.95361C309.478 9.13981 309.912 9.44027 310.208 9.85498C310.508 10.2697 310.659 10.7648 310.659 11.3403C310.659 12.1359 310.377 12.8045 309.814 13.3462C309.252 13.8879 308.511 14.1587 307.593 14.1587C306.674 14.1587 305.934 13.8879 305.371 13.3462C304.808 12.8003 304.527 12.1211 304.527 11.3086C304.527 10.7035 304.679 10.1978 304.984 9.7915C305.293 9.38102 305.731 9.10173 306.298 8.95361ZM306.069 7.01758C306.069 7.45768 306.211 7.81738 306.495 8.09668C306.778 8.37598 307.146 8.51562 307.599 8.51562C308.039 8.51562 308.399 8.37809 308.678 8.10303C308.962 7.82373 309.104 7.48307 309.104 7.08105C309.104 6.66211 308.958 6.31087 308.666 6.02734C308.378 5.73958 308.018 5.5957 307.586 5.5957C307.151 5.5957 306.789 5.73535 306.501 6.01465C306.213 6.29395 306.069 6.62826 306.069 7.01758ZM305.701 11.3149C305.701 11.6408 305.777 11.9561 305.93 12.2607C306.086 12.5654 306.317 12.8024 306.622 12.9717C306.926 13.1367 307.254 13.2192 307.605 13.2192C308.151 13.2192 308.602 13.0436 308.958 12.6924C309.313 12.3411 309.491 11.8947 309.491 11.353C309.491 10.8029 309.307 10.348 308.938 9.98828C308.575 9.62858 308.118 9.44873 307.567 9.44873C307.03 9.44873 306.583 9.62646 306.228 9.98193C305.877 10.3374 305.701 10.7817 305.701 11.3149ZM311.776 9.41064C311.776 8.31038 311.888 7.42594 312.112 6.75732C312.341 6.08447 312.677 5.56608 313.122 5.20215C313.57 4.83822 314.133 4.65625 314.81 4.65625C315.309 4.65625 315.747 4.75781 316.124 4.96094C316.501 5.15983 316.812 5.44971 317.057 5.83057C317.303 6.20719 317.495 6.66846 317.635 7.21436C317.774 7.75602 317.844 8.48812 317.844 9.41064C317.844 10.5024 317.732 11.3848 317.508 12.0576C317.284 12.7262 316.947 13.2446 316.499 13.6128C316.054 13.9767 315.491 14.1587 314.81 14.1587C313.913 14.1587 313.208 13.8371 312.696 13.1938C312.083 12.4194 311.776 11.1584 311.776 9.41064ZM312.95 9.41064C312.95 10.9383 313.128 11.9561 313.483 12.4639C313.843 12.9674 314.285 13.2192 314.81 13.2192C315.335 13.2192 315.775 12.9653 316.13 12.4575C316.49 11.9497 316.67 10.9341 316.67 9.41064C316.67 7.87874 316.49 6.861 316.13 6.35742C315.775 5.85384 315.331 5.60205 314.797 5.60205C314.273 5.60205 313.854 5.82422 313.541 6.26855C313.147 6.83561 312.95 7.88298 312.95 9.41064ZM319.228 6.92871C319.228 6.26432 319.395 5.69938 319.729 5.23389C320.064 4.76839 320.548 4.53564 321.183 4.53564C321.767 4.53564 322.25 4.74512 322.63 5.16406C323.015 5.57878 323.208 6.19027 323.208 6.99854C323.208 7.78564 323.013 8.3929 322.624 8.82031C322.239 9.24349 321.763 9.45508 321.196 9.45508C320.633 9.45508 320.163 9.24561 319.787 8.82666C319.414 8.40771 319.228 7.77507 319.228 6.92871ZM321.215 5.32275C320.931 5.32275 320.694 5.44548 320.504 5.69092C320.318 5.93636 320.225 6.38704 320.225 7.04297C320.225 7.63965 320.32 8.06071 320.51 8.30615C320.701 8.54736 320.936 8.66797 321.215 8.66797C321.503 8.66797 321.74 8.54525 321.926 8.2998C322.116 8.05436 322.211 7.60579 322.211 6.9541C322.211 6.35319 322.116 5.93213 321.926 5.69092C321.735 5.44548 321.498 5.32275 321.215 5.32275ZM321.221 14.3428L326.312 4.53564H327.239L322.167 14.3428H321.221ZM325.246 11.8164C325.246 11.1478 325.413 10.5828 325.747 10.1216C326.081 9.65609 326.568 9.42334 327.207 9.42334C327.791 9.42334 328.273 9.63281 328.654 10.0518C329.039 10.4665 329.232 11.078 329.232 11.8862C329.232 12.6733 329.037 13.2806 328.648 13.708C328.263 14.1312 327.785 14.3428 327.213 14.3428C326.651 14.3428 326.181 14.1333 325.804 13.7144C325.432 13.2912 325.246 12.6585 325.246 11.8164ZM327.239 10.2104C326.951 10.2104 326.712 10.3332 326.521 10.5786C326.335 10.8241 326.242 11.2747 326.242 11.9307C326.242 12.5231 326.337 12.9421 326.528 13.1875C326.718 13.4329 326.953 13.5557 327.232 13.5557C327.524 13.5557 327.764 13.4329 327.95 13.1875C328.14 12.9421 328.235 12.4935 328.235 11.8418C328.235 11.2409 328.14 10.8198 327.95 10.5786C327.759 10.3332 327.522 10.2104 327.239 10.2104Z" fill="black"/>
</svg>
