<svg width="295" height="56" viewBox="0 0 295 56" fill="none" xmlns="http://www.w3.org/2000/svg">
<path d="M0 0H294.675V20H0V0Z" fill="#FF0000"/>
<path d="M0 0H235.74V20H0V0Z" fill="#46B634"/>
<path d="M122.805 37.4131C121.74 36.9639 120.964 36.3486 120.476 35.5674C119.997 34.7764 119.758 33.9121 119.758 32.9746C119.758 31.373 120.314 30.0498 121.428 29.0049C122.551 27.96 124.143 27.4375 126.203 27.4375C128.244 27.4375 129.826 27.96 130.949 29.0049C132.082 30.0498 132.648 31.373 132.648 32.9746C132.648 33.9707 132.39 34.8594 131.872 35.6406C131.354 36.4121 130.627 37.0029 129.689 37.4131C130.881 37.8916 131.784 38.5898 132.399 39.5078C133.024 40.4258 133.337 41.4854 133.337 42.6865C133.337 44.6689 132.702 46.2803 131.433 47.5205C130.173 48.7607 128.493 49.3809 126.394 49.3809C124.44 49.3809 122.814 48.8682 121.516 47.8428C119.982 46.6318 119.216 44.9717 119.216 42.8623C119.216 41.7002 119.504 40.6357 120.08 39.6689C120.656 38.6924 121.564 37.9404 122.805 37.4131ZM123.654 33.2676C123.654 34.0879 123.884 34.7275 124.343 35.1865C124.812 35.6455 125.432 35.875 126.203 35.875C126.984 35.875 127.609 35.6455 128.078 35.1865C128.547 34.7178 128.781 34.0732 128.781 33.2529C128.781 32.4814 128.547 31.8662 128.078 31.4072C127.619 30.9385 127.009 30.7041 126.247 30.7041C125.456 30.7041 124.826 30.9385 124.357 31.4072C123.889 31.876 123.654 32.4961 123.654 33.2676ZM123.273 42.4668C123.273 43.5996 123.562 44.4834 124.138 45.1182C124.724 45.7529 125.451 46.0703 126.32 46.0703C127.17 46.0703 127.873 45.7676 128.43 45.1621C128.986 44.5469 129.265 43.6631 129.265 42.5107C129.265 41.5049 128.981 40.6992 128.415 40.0938C127.849 39.4785 127.131 39.1709 126.262 39.1709C125.256 39.1709 124.504 39.5176 124.006 40.2109C123.518 40.9043 123.273 41.6562 123.273 42.4668ZM142.932 27.4375C145.012 27.4375 146.638 28.1797 147.81 29.6641C149.206 31.4219 149.904 34.3369 149.904 38.4092C149.904 42.4717 149.201 45.3916 147.795 47.1689C146.633 48.6338 145.012 49.3662 142.932 49.3662C140.842 49.3662 139.157 48.5654 137.878 46.9639C136.599 45.3525 135.959 42.4863 135.959 38.3652C135.959 34.3223 136.662 31.4121 138.068 29.6348C139.23 28.1699 140.852 27.4375 142.932 27.4375ZM142.932 30.8506C142.434 30.8506 141.989 31.0117 141.599 31.334C141.208 31.6465 140.905 32.2129 140.69 33.0332C140.407 34.0977 140.266 35.8896 140.266 38.4092C140.266 40.9287 140.393 42.6621 140.646 43.6094C140.9 44.5469 141.218 45.1719 141.599 45.4844C141.989 45.7969 142.434 45.9531 142.932 45.9531C143.43 45.9531 143.874 45.7969 144.265 45.4844C144.655 45.1621 144.958 44.5908 145.173 43.7705C145.456 42.7158 145.598 40.9287 145.598 38.4092C145.598 35.8896 145.471 34.1611 145.217 33.2236C144.963 32.2764 144.641 31.6465 144.25 31.334C143.869 31.0117 143.43 30.8506 142.932 30.8506ZM152.702 32.8281C152.702 30.9043 153.122 29.4785 153.962 28.5508C154.812 27.623 155.959 27.1592 157.404 27.1592C158.898 27.1592 160.065 27.623 160.905 28.5508C161.755 29.4688 162.18 30.8945 162.18 32.8281C162.18 34.752 161.755 36.1777 160.905 37.1055C160.065 38.0332 158.923 38.4971 157.478 38.4971C155.983 38.4971 154.812 38.0381 153.962 37.1201C153.122 36.1924 152.702 34.7617 152.702 32.8281ZM155.91 32.7988C155.91 34.1953 156.071 35.1328 156.394 35.6113C156.638 35.9629 156.975 36.1387 157.404 36.1387C157.844 36.1387 158.186 35.9629 158.43 35.6113C158.742 35.1328 158.898 34.1953 158.898 32.7988C158.898 31.4023 158.742 30.4697 158.43 30.001C158.186 29.6396 157.844 29.459 157.404 29.459C156.975 29.459 156.638 29.6348 156.394 29.9863C156.071 30.4648 155.91 31.4023 155.91 32.7988ZM160.539 49.8203H157.492L168.933 27.1592H171.892L160.539 49.8203ZM167.189 44.1807C167.189 42.2568 167.609 40.8311 168.449 39.9033C169.299 38.9756 170.456 38.5117 171.921 38.5117C173.396 38.5117 174.553 38.9756 175.393 39.9033C176.242 40.8311 176.667 42.2568 176.667 44.1807C176.667 46.1143 176.242 47.5449 175.393 48.4727C174.553 49.4004 173.41 49.8643 171.965 49.8643C170.471 49.8643 169.299 49.4004 168.449 48.4727C167.609 47.5449 167.189 46.1143 167.189 44.1807ZM170.397 44.166C170.397 45.5625 170.559 46.4951 170.881 46.9639C171.125 47.3252 171.462 47.5059 171.892 47.5059C172.331 47.5059 172.668 47.3301 172.902 46.9785C173.225 46.5 173.386 45.5625 173.386 44.166C173.386 42.7695 173.229 41.832 172.917 41.3535C172.673 41.002 172.331 40.8262 171.892 40.8262C171.452 40.8262 171.115 41.002 170.881 41.3535C170.559 41.832 170.397 42.7695 170.397 44.166Z" fill="black"/>
</svg>
